<svg xmlns="http://www.w3.org/2000/svg" xmlns:xlink="http://www.w3.org/1999/xlink" width="344" height="141"><defs><linearGradient id="linear-gradient" x1=".506" x2=".501" y1="74.606" y2="75.427" gradientUnits="objectBoundingBox"><stop offset="0" stop-color="#b2d14d"/><stop offset=".287" stop-color="#b4d554"/><stop offset=".699" stop-color="#bbde67"/><stop offset="1" stop-color="#c2e879"/></linearGradient><linearGradient id="linear-gradient-2" x1=".5" x2=".5" y1="164.879" y2="166.654" xlink:href="#linear-gradient"/><linearGradient id="linear-gradient-3" x1=".576" x2=".446" y1="118.251" y2="116.685" xlink:href="#linear-gradient"/><linearGradient id="linear-gradient-4" x1="-1.343" x2=".913" y1="143.765" y2="143.765" gradientUnits="objectBoundingBox"><stop offset="0" stop-color="#d8edb7"/><stop offset="1" stop-color="#a9c632"/></linearGradient><linearGradient id="linear-gradient-5" x1=".054" x2="2.138" y1="31.186" y2="29.82" xlink:href="#linear-gradient-4"/><linearGradient id="linear-gradient-6" x1=".694" x2=".038" y1="33.495" y2="31.962" xlink:href="#linear-gradient-4"/><style>.cls-9{fill:#fff}.cls-74{fill:#6c21d6}.cls-75{fill:#2c1f9c}.cls-76{fill:#c6d2f2}.cls-77{fill:#ffc2b0}.cls-78{fill:#bad4f5}.cls-79{fill:none;stroke:#fff;stroke-linecap:round;stroke-linejoin:round;stroke-width:3.308px}.cls-83{fill:#a8c4e5}</style></defs><g id="Grupo_1662" data-name="Grupo 1662" transform="translate(-548 -189)"><g id="Grupo_622" data-name="Grupo 622" transform="translate(548 234)"><path id="element_small-wave-purple" d="M-11062.582-6181.043a22.569 22.569 0 00-31.041 0 32.607 32.607 0 01-22.687 9.043 32.624 32.624 0 01-22.69-9.043l7.175-6.915a22.553 22.553 0 0031.029 0 33 33 0 0145.388 0 22.555 22.555 0 0031.03 0 32.982 32.982 0 0145.378 0l-7.174 6.913a22.557 22.557 0 00-31.03 0 32.607 32.607 0 01-22.687 9.043 32.622 32.622 0 01-22.691-9.041z" data-name="element/small-wave-purple" transform="translate(11139.001 6197)" fill="#6045af"/><path id="element_mid-wave-green" d="M-11018.641-6171.471a35.144 35.144 0 00-48.891 0 50.931 50.931 0 01-35.732 14.468 50.942 50.942 0 01-35.737-14.471l11.3-11.061a35.121 35.121 0 0048.872 0 51.385 51.385 0 0171.487 0 35.121 35.121 0 0048.872 0 51.363 51.363 0 0171.47 0l-11.3 11.062a35.122 35.122 0 00-48.873 0A50.93 50.93 0 01-10982.9-6157a50.939 50.939 0 01-35.741-14.471z" data-name="element/mid-wave-green" transform="translate(11231.001 6246)" fill="#65a300"/></g><g id="Grupo_1661" data-name="Grupo 1661" transform="translate(-169.178 -48.11)"><g id="Grupo_1126" data-name="Grupo 1126" transform="translate(911.156 237.11)"><g id="Grupo_1121" data-name="Grupo 1121" transform="translate(4.671 53.871)"><g id="Grupo_1120" data-name="Grupo 1120"><path id="Caminho_2116" d="M2488.3-763.05h-26.09l3.633 19.161c0 1.393.921 2.778 2.756 3.84a14.707 14.707 0 0013.31 0c1.835-1.061 2.756-2.454 2.756-3.84z" data-name="Caminho 2116" transform="translate(-2461.436 773.274)" fill="url(#linear-gradient)"/><path id="Caminho_2117" d="M2461.16-766.09v3.258c0 2.041 1.349 4.075 4.046 5.638 5.395 3.117 14.143 3.117 19.545 0 2.7-1.555 4.046-3.6 4.046-5.645v-3.25z" data-name="Caminho 2117" transform="translate(-2461.16 774.073)" fill="url(#linear-gradient-2)"/><path id="Caminho_2118" d="M2484.75-774.584c5.395 3.117 5.395 8.166 0 11.283s-14.143 3.117-19.544 0-5.395-8.166 0-11.283 14.15-3.116 19.544 0z" data-name="Caminho 2118" transform="translate(-2461.16 776.922)" fill="url(#linear-gradient-3)"/><ellipse id="Elipse_55" cx="11.276" cy="6.508" data-name="Elipse 55" rx="11.276" ry="6.508" transform="translate(2.543 1.476)" fill="url(#linear-gradient-4)"/></g></g><g id="Grupo_1125" data-name="Grupo 1125"><g id="Grupo_1122" data-name="Grupo 1122" transform="translate(0 .892)"><path id="Caminho_2119" d="M2459.2-841.661a12.994 12.994 0 01.973 3.766c.118 4.326-4.9 7.3-5.321 11.607-.427 4.414 4.083 7.9 4.547 12.307.39 3.737-2.211 7.547-.988 11.1a8.821 8.821 0 003.773 4.23 41.5 41.5 0 014.82 3.169 11.043 11.043 0 013.581 9.949c3.582-4.385 7.3-9.087 8.041-14.7a15.514 15.514 0 00-2.373-10.391c-1.408-2.152-3.412-4.061-3.877-6.6-.449-2.432.634-4.842 1.562-7.134s1.725-4.9.752-7.171c-.848-1.975-2.845-3.191-4.091-4.938a16.082 16.082 0 01-2.064-5.218c-.8-2.933-2.358-7.141-6.095-7.127-3.596.024-4.111 4.601-3.24 7.151z" data-name="Caminho 2119" transform="translate(-2454.821 848.81)" fill="url(#linear-gradient-5)"/></g><g id="Grupo_1123" data-name="Grupo 1123" transform="translate(18.232)"><path id="Caminho_2120" d="M2489.789-840.69c-.339 3.552 1 7.48-.892 10.5-1.555 2.484-4.746 3.375-6.8 5.461-2.83 2.867-3.022 7.5-1.887 11.357s3.361 7.311 4.85 11.055 2.189 8.151.258 11.688c3.442-2.587 6.927-5.2 9.6-8.578s4.5-7.635 4.083-11.917c-.265-2.719-1.407-5.491-.575-8.1 1.194-3.759 6.036-5.608 6.817-9.478.494-2.447-.825-4.857-2.2-6.942s-2.911-4.267-2.925-6.758c-.008-1.533.582-3.029.582-4.562-.007-4.3-3.832-3.3-6.227-1.607a11.174 11.174 0 00-4.684 7.881z" data-name="Caminho 2120" transform="translate(-2479.559 850.02)" fill="url(#linear-gradient-6)"/></g><g id="Grupo_1124" data-name="Grupo 1124" transform="translate(4.318 8.542)"><path id="Caminho_2121" d="M2493.646-819.107c.28-.346.56-.693.833-1.046l.007.015a10.32 10.32 0 013.515-.781l-.015-.405a10.733 10.733 0 00-3.088.6 9.513 9.513 0 001.511-2.941 8.743 8.743 0 00.229-3.213l2.587-1.422-.192-.354-2.439 1.341a31.606 31.606 0 00-.641-3.184l-.147-.619a18.557 18.557 0 01-.5-3.081 5 5 0 012.292-1.5l-.118-.383a5.37 5.37 0 00-2.2 1.319 6.646 6.646 0 01.8-3.471l-.346-.2c-1.2 2.071-.943 4.6-.442 6.883a9.179 9.179 0 00-2.646-1.57l-.147.376a8.969 8.969 0 012.941 1.857l.118.486c.516 2.167 1.054 4.407.494 6.515a7.849 7.849 0 00-3.2-3.117l-.184.354a7.389 7.389 0 013.213 3.294 14.148 14.148 0 01-2.542 3.987c-.5.627-1.017 1.268-1.474 1.938a10.38 10.38 0 00-3.84-3.921l-.2.346a10.011 10.011 0 013.8 3.943c0 .007-.007.007-.007.015a17.867 17.867 0 00-2.41 8.394 11.391 11.391 0 00-3.914-3.213l-.177.361a11.025 11.025 0 014.017 3.412l.044-.029c-.037.634-.044 1.253-.052 1.85v.8c.007.907.037 1.828.066 2.719a39.2 39.2 0 01-.435 9.1c-.907 4.392-3.405 7.768-6.67 9.013l.383.28c3.28-1.363 5.763-4.783 6.685-9.212a39.648 39.648 0 00.442-9.19c-.03-.892-.052-1.813-.066-2.712v-.56a14.685 14.685 0 014.437-1.562l-.073-.4a15.244 15.244 0 00-4.363 1.5 26.114 26.114 0 01.752-6.39 15.673 15.673 0 014.282-1.356l-.066-.4a16.576 16.576 0 00-4.083 1.253 13.757 13.757 0 011.541-3.449 21.916 21.916 0 011.688-2.27z" class="cls-9" data-name="Caminho 2121" transform="translate(-2466.312 838.43)"/><path id="Caminho_2122" d="M2468.927-807.358l.073.111 1.953-1.393-.236-.324-1.931 1.371a52.68 52.68 0 00-.767-1.349 34.96 34.96 0 01-2.491-4.916l2.749-2.218-.251-.31-2.646 2.13a13.3 13.3 0 01-.589-2.255 17.6 17.6 0 01.243-5.918l3.869-1.658-.162-.368-3.619 1.555c.133-.693.28-1.385.427-2.071.14-.656.28-1.3.406-1.953a23.656 23.656 0 00.486-4.274l1.725-1.054-.207-.346-1.518.929a10.438 10.438 0 00-1.592-5.69l-.332.221c1.821 2.7 1.688 6.183 1.261 8.925l-1.658-1.99-.31.258 1.887 2.255c-.044.236-.081.464-.125.678a86.1 86.1 0 01-.405 1.946 30.427 30.427 0 00-.921 6.706l-3.294-3.022-.273.295 3.53 3.235.044-.052a11.894 11.894 0 00.147 1.437 19.111 19.111 0 002.366 6.1l-3.442-.708-.089.391.192.044 3.552.73.008-.044c.229.405.457.8.678 1.194.457.8.936 1.629 1.363 2.454a34.258 34.258 0 011.754 3.987 10.694 10.694 0 00-4.267-1.857l-.074.4a10.286 10.286 0 014.5 2.086l.052-.059a34.484 34.484 0 01.6 20.621l.383.111a34.822 34.822 0 00-2.587-25.463c-.138-.295-.3-.583-.462-.878z" class="cls-9" data-name="Caminho 2122" transform="translate(-2460.68 838.148)"/></g></g></g><g id="Grupo_1131" data-name="Grupo 1131" transform="translate(824.178 280.36)"><g id="Grupo_1130" data-name="Grupo 1130" transform="translate(0 30.277)" opacity=".2"><path id="Caminho_2250" d="M2451.172-717.962a5.711 5.711 0 00-1.56-1.29l-49.976-29.03a12.639 12.639 0 00-11.471 0l-49.969 29.03a5.737 5.737 0 00-1.56 1.29h-.805v2.5h.037a4.336 4.336 0 002.329 2.874l49.969 29.029a12.653 12.653 0 0011.478 0l49.969-29.029a4.321 4.321 0 002.329-2.874h.037v-2.5z" data-name="Caminho 2250" transform="translate(-2335.83 749.657)" fill="transparent"/><path id="Caminho_2251" d="M2388.268-683.693a12.591 12.591 0 0011.426 0l49.77-28.912a4.322 4.322 0 002.322-2.859h.037v-2.491h-.8a5.7 5.7 0 00-1.56-1.282l-49.77-28.912a12.591 12.591 0 00-11.426 0l-49.77 28.912a5.828 5.828 0 00-1.56 1.29h-.8v2.491h.036a4.3 4.3 0 002.322 2.859z" data-name="Caminho 2251" transform="translate(-2335.912 749.621)" fill="#fbfbfc" opacity=".016"/><path id="Caminho_2252" d="M2388.369-683.832a12.545 12.545 0 0011.382 0l49.563-28.794a4.265 4.265 0 002.307-2.852h.037v-2.484h-.8a5.663 5.663 0 00-1.553-1.282l-49.571-28.794a12.544 12.544 0 00-11.382 0l-49.563 28.794a5.656 5.656 0 00-1.553 1.282h-.8v2.484h.037a4.308 4.308 0 002.307 2.852z" data-name="Caminho 2252" transform="translate(-2335.99 749.59)" fill="#f8f7f9" opacity=".033"/><path id="Caminho_2253" d="M2388.481-683.975a12.5 12.5 0 0011.338 0l49.365-28.676a4.273 4.273 0 002.3-2.837h.037v-2.469h-.791a5.717 5.717 0 00-1.545-1.275l-49.365-28.683a12.5 12.5 0 00-11.338 0l-49.365 28.676a5.744 5.744 0 00-1.546 1.275h-.791v2.469h.037a4.275 4.275 0 002.3 2.837z" data-name="Caminho 2253" transform="translate(-2336.08 749.557)" fill="#f4f4f6" opacity=".049"/><path id="Caminho_2254" d="M2388.6-684.111a12.45 12.45 0 0011.293 0l49.158-28.558a4.27 4.27 0 002.292-2.83h.037v-2.461h-.791a5.663 5.663 0 00-1.538-1.268l-49.166-28.565a12.435 12.435 0 00-11.286 0l-49.158 28.558a5.8 5.8 0 00-1.538 1.268h-.791v2.462h.037a4.245 4.245 0 002.292 2.823z" data-name="Caminho 2254" transform="translate(-2336.167 749.523)" fill="#f0f0f3" opacity=".066"/><path id="Caminho_2255" d="M2388.7-684.255a12.389 12.389 0 0011.242 0l48.959-28.44a4.223 4.223 0 002.278-2.815h.036v-2.454h-.791a5.6 5.6 0 00-1.531-1.26l-48.959-28.447a12.388 12.388 0 00-11.242 0l-48.959 28.44a5.509 5.509 0 00-1.531 1.268h-.791v2.454h.037a4.224 4.224 0 002.278 2.815z" data-name="Caminho 2255" transform="translate(-2336.246 749.49)" fill="#edecf0" opacity=".082"/><path id="Caminho_2256" d="M2388.807-684.393a12.341 12.341 0 0011.2 0l48.76-28.329a4.222 4.222 0 002.27-2.808h.037v-2.439h-.784a5.57 5.57 0 00-1.523-1.26L2400-747.559a12.342 12.342 0 00-11.2 0l-48.76 28.329a5.457 5.457 0 00-1.523 1.26h-.783v2.439h.037a4.224 4.224 0 002.27 2.8z" data-name="Caminho 2256" transform="translate(-2336.332 749.459)" fill="#e9e8ed" opacity=".098"/><path id="Caminho_2257" d="M2388.916-684.536a12.3 12.3 0 0011.154 0l48.554-28.211a4.187 4.187 0 002.263-2.793h.036v-2.432h-.784a5.619 5.619 0 00-1.516-1.253l-48.554-28.211a12.278 12.278 0 00-11.146 0l-48.554 28.211a5.647 5.647 0 00-1.516 1.253h-.783v2.432h.036a4.2 4.2 0 002.263 2.793z" data-name="Caminho 2257" transform="translate(-2336.419 749.425)" fill="#e5e4eb" opacity=".115"/><path id="Caminho_2258" d="M2389.017-684.67a12.232 12.232 0 0011.1 0l48.355-28.094a4.205 4.205 0 002.256-2.786h.036v-2.417h-.777a5.491 5.491 0 00-1.515-1.245l-48.355-28.094a12.232 12.232 0 00-11.1 0l-48.355 28.094a5.511 5.511 0 00-1.516 1.253h-.776v2.417h.036a4.188 4.188 0 002.256 2.778z" data-name="Caminho 2258" transform="translate(-2336.498 749.389)" fill="#e2e0e8" opacity=".131"/><path id="Caminho_2259" d="M2389.118-684.816a12.184 12.184 0 0011.058 0l48.149-27.976a4.17 4.17 0 002.241-2.771h.037v-2.41h-.776a5.7 5.7 0 00-1.509-1.245l-48.156-27.976a12.184 12.184 0 00-11.058 0l-48.149 27.976a5.7 5.7 0 00-1.508 1.245h-.776v2.41h.036a4.173 4.173 0 002.241 2.771z" data-name="Caminho 2259" transform="translate(-2336.577 749.358)" fill="#dedde5" opacity=".147"/><path id="Caminho_2260" d="M2389.243-684.952a12.137 12.137 0 0011.013 0l47.95-27.858a4.159 4.159 0 002.234-2.756h.037v-2.4h-.769a5.386 5.386 0 00-1.5-1.238l-47.95-27.865a12.123 12.123 0 00-11.006 0l-47.95 27.858a5.644 5.644 0 00-1.5 1.238h-.769v2.4h.037a4.159 4.159 0 002.233 2.756z" data-name="Caminho 2260" transform="translate(-2336.672 749.325)" fill="#dad9e2" opacity=".164"/><path id="Caminho_2261" d="M2389.343-685.1a12.076 12.076 0 0010.962 0l47.743-27.74a4.135 4.135 0 002.227-2.749h.036v-2.388h-.769a5.45 5.45 0 00-1.494-1.231l-47.75-27.747a12.075 12.075 0 00-10.962 0l-47.744 27.74a5.355 5.355 0 00-1.494 1.238h-.769v2.388h.036a4.125 4.125 0 002.226 2.742z" data-name="Caminho 2261" transform="translate(-2336.751 749.291)" fill="#d7d5df" opacity=".18"/><path id="Caminho_2262" d="M2389.452-685.234a12.029 12.029 0 0010.918 0l47.544-27.629a4.087 4.087 0 002.211-2.734h.037v-2.38h-.762a5.54 5.54 0 00-1.486-1.231l-47.544-27.629a12.029 12.029 0 00-10.918 0l-47.544 27.629a5.54 5.54 0 00-1.486 1.231h-.762v2.38h.036a4.13 4.13 0 002.211 2.734z" data-name="Caminho 2262" transform="translate(-2336.837 749.26)" fill="#d3d1dc" opacity=".197"/><path id="Caminho_2263" d="M2389.556-685.38a11.981 11.981 0 0010.873 0l47.345-27.511a4.084 4.084 0 002.2-2.727h.037v-2.373h-.762a5.6 5.6 0 00-1.479-1.224l-47.345-27.511a11.981 11.981 0 00-10.873 0l-47.345 27.511a5.377 5.377 0 00-1.479 1.224h-.762v2.373h.037a4.1 4.1 0 002.2 2.719z" data-name="Caminho 2263" transform="translate(-2336.919 749.229)" fill="#cfcdd9" opacity=".213"/><path id="Caminho_2264" d="M2389.665-685.51a11.934 11.934 0 0010.829 0l47.139-27.393a4.093 4.093 0 002.2-2.712h.037v-2.358h-.762a5.408 5.408 0 00-1.471-1.216l-47.139-27.393a11.92 11.92 0 00-10.822 0l-47.139 27.393a5.34 5.34 0 00-1.472 1.223h-.761v2.358h.037a4.108 4.108 0 002.2 2.712z" data-name="Caminho 2264" transform="translate(-2337.006 749.191)" fill="#cccad6" opacity=".229"/><path id="Caminho_2265" d="M2389.768-685.656a11.873 11.873 0 0010.778 0l46.94-27.275a4.07 4.07 0 002.189-2.7h.036v-2.351h-.754a5.287 5.287 0 00-1.472-1.209l-46.94-27.276a11.873 11.873 0 00-10.778 0l-46.931 27.267a5.4 5.4 0 00-1.472 1.216h-.754v2.351h.036a4.052 4.052 0 002.189 2.7z" data-name="Caminho 2265" transform="translate(-2337.087 749.16)" fill="#c8c6d3" opacity=".246"/><path id="Caminho_2266" d="M2389.867-685.792a11.827 11.827 0 0010.734 0l46.733-27.158a4.038 4.038 0 002.175-2.69h.037v-2.336h-.754a5.367 5.367 0 00-1.464-1.209l-46.741-27.165a11.826 11.826 0 00-10.733 0l-46.734 27.158a5.37 5.37 0 00-1.464 1.209h-.754v2.336h.037a4.038 4.038 0 002.174 2.69z" data-name="Caminho 2266" transform="translate(-2337.164 749.126)" fill="#c4c2d0" opacity=".262"/><path id="Caminho_2267" d="M2389.991-685.936a11.778 11.778 0 0010.689 0l46.535-27.04a4.025 4.025 0 002.167-2.675h.036v-2.329h-.747a5.422 5.422 0 00-1.457-1.2l-46.535-27.047a11.763 11.763 0 00-10.682 0l-46.535 27.04a5.315 5.315 0 00-1.457 1.2h-.747v2.329h.036a4.024 4.024 0 002.167 2.675z" data-name="Caminho 2267" transform="translate(-2337.258 749.093)" fill="#c1becd" opacity=".279"/><path id="Caminho_2268" d="M2390.092-686.074a11.715 11.715 0 0010.637 0L2447.058-713a4.022 4.022 0 002.16-2.668h.037v-2.321h-.747a5.234 5.234 0 00-1.449-1.194l-46.336-26.929a11.717 11.717 0 00-10.638 0l-46.328 26.929a5.381 5.381 0 00-1.45 1.2h-.747v2.322h.037a4.014 4.014 0 002.16 2.668z" data-name="Caminho 2268" transform="translate(-2337.337 749.062)" fill="#bdbaca" opacity=".295"/><path id="Caminho_2269" d="M2390.2-686.208a11.669 11.669 0 0010.593 0l46.129-26.811a4.006 4.006 0 002.152-2.653h.037v-2.307h-.74a5.446 5.446 0 00-1.442-1.194l-46.129-26.811a11.67 11.67 0 00-10.594 0l-46.129 26.811a5.216 5.216 0 00-1.442 1.194h-.74v2.307h.037a3.985 3.985 0 002.152 2.653z" data-name="Caminho 2269" transform="translate(-2337.426 749.026)" fill="#b9b6c8" opacity=".312"/><path id="Caminho_2270" d="M2390.31-686.354a11.624 11.624 0 0010.55 0l45.93-26.693a3.97 3.97 0 002.137-2.646h.037v-2.3h-.74a5.28 5.28 0 00-1.435-1.186l-45.93-26.693a11.608 11.608 0 00-10.542 0l-45.923 26.693a5.278 5.278 0 00-1.435 1.186h-.74v2.3h.037a3.958 3.958 0 002.137 2.638z" data-name="Caminho 2270" transform="translate(-2337.511 748.995)" fill="#b6b3c5" opacity=".328"/><path id="Caminho_2271" d="M2390.414-686.487a11.561 11.561 0 0010.5 0l45.724-26.575a3.958 3.958 0 002.13-2.631h.037v-2.292h-.732a5.33 5.33 0 00-1.427-1.179l-45.724-26.575a11.561 11.561 0 00-10.5 0l-45.722 26.575a5.389 5.389 0 00-1.435 1.187h-.732v2.292h.037a3.956 3.956 0 002.13 2.631z" data-name="Caminho 2271" transform="translate(-2337.592 748.958)" fill="#b2afc2" opacity=".344"/><path id="Caminho_2272" d="M2390.514-686.635a11.514 11.514 0 0010.453 0l45.525-26.458a3.969 3.969 0 002.123-2.624h.037v-2.277h-.732a5.214 5.214 0 00-1.428-1.179l-45.525-26.465a11.513 11.513 0 00-10.453 0l-45.524 26.458a5.215 5.215 0 00-1.427 1.179h-.732v2.277h.037a3.939 3.939 0 002.123 2.616z" data-name="Caminho 2272" transform="translate(-2337.671 748.93)" fill="#aeabbf" opacity=".361"/><path id="Caminho_2273" d="M2390.618-686.769a11.467 11.467 0 0010.409 0l45.319-26.339a3.918 3.918 0 002.108-2.609h.036v-2.27h-.732a5.139 5.139 0 00-1.42-1.172l-45.319-26.347a11.467 11.467 0 00-10.409 0l-45.319 26.34a5.421 5.421 0 00-1.42 1.172h-.732v2.27h.037a3.944 3.944 0 002.108 2.609z" data-name="Caminho 2273" transform="translate(-2337.753 748.894)" fill="#aba7bc" opacity=".377"/><path id="Caminho_2274" d="M2390.737-686.912a11.4 11.4 0 0010.357 0l45.12-26.222a3.9 3.9 0 002.1-2.594h.037v-2.263h-.725a5.1 5.1 0 00-1.413-1.164l-45.12-26.229a11.4 11.4 0 00-10.357 0l-45.12 26.222a5.1 5.1 0 00-1.413 1.172h-.725v2.263h.037a3.907 3.907 0 002.1 2.594z" data-name="Caminho 2274" transform="translate(-2337.842 748.86)" fill="#a7a3b9" opacity=".393"/><path id="Caminho_2275" d="M2390.841-687.048a11.357 11.357 0 0010.313 0l44.913-26.111a3.922 3.922 0 002.093-2.587h.037v-2.248h-.725a5.034 5.034 0 00-1.4-1.157l-44.921-26.111a11.357 11.357 0 00-10.313 0l-44.913 26.111a5.063 5.063 0 00-1.406 1.165h-.725v2.248h.036a3.923 3.923 0 002.094 2.587z" data-name="Caminho 2275" transform="translate(-2337.924 748.827)" fill="#a3a0b6" opacity=".41"/><path id="Caminho_2276" d="M2390.952-687.194a11.31 11.31 0 0010.269 0l44.714-25.993a3.911 3.911 0 002.086-2.572h.037V-718h-.718a5.114 5.114 0 00-1.4-1.157l-44.715-25.993a11.31 11.31 0 00-10.269 0l-44.714 25.993a5.115 5.115 0 00-1.4 1.157h-.717v2.24h.037a3.85 3.85 0 002.086 2.572z" data-name="Caminho 2276" transform="translate(-2338.013 748.796)" fill="#a09cb3" opacity=".426"/><path id="Caminho_2277" d="M2391.058-687.327a11.264 11.264 0 0010.225 0L2445.8-713.2a3.852 3.852 0 002.072-2.565h.037v-2.226h-.718a5.033 5.033 0 00-1.391-1.15l-44.515-25.875a11.249 11.249 0 00-10.218 0l-44.508 25.875a5.081 5.081 0 00-1.391 1.15h-.717v2.226h.036a3.845 3.845 0 002.072 2.557z" data-name="Caminho 2277" transform="translate(-2338.097 748.76)" fill="#9c98b0" opacity=".443"/><path id="Caminho_2278" d="M2391.162-687.473a11.2 11.2 0 0010.174 0l44.309-25.757a3.837 3.837 0 002.063-2.55h.037V-718h-.71a5.121 5.121 0 00-1.383-1.142l-44.309-25.765a11.2 11.2 0 00-10.174 0l-44.309 25.757a5.057 5.057 0 00-1.391 1.15h-.71v2.218h.037a3.822 3.822 0 002.064 2.55z" data-name="Caminho 2278" transform="translate(-2338.178 748.729)" fill="#9894ad" opacity=".459"/><path id="Caminho_2279" d="M2391.263-687.612a11.155 11.155 0 0010.129 0l44.11-25.639a3.835 3.835 0 002.057-2.543h.036V-718h-.71a5 5 0 00-1.383-1.142l-44.11-25.647a11.155 11.155 0 00-10.129 0l-44.11 25.639a5.109 5.109 0 00-1.383 1.142h-.71v2.211h.037a3.809 3.809 0 002.057 2.535z" data-name="Caminho 2279" transform="translate(-2338.258 748.698)" fill="#9590aa" opacity=".475"/><path id="Caminho_2280" d="M2391.382-687.753a11.107 11.107 0 0010.085 0l43.9-25.521a3.825 3.825 0 002.042-2.528h.037V-718h-.7a4.948 4.948 0 00-1.376-1.135l-43.911-25.529a11.092 11.092 0 00-10.078 0l-43.9 25.521a5.087 5.087 0 00-1.376 1.135h-.7v2.2h.036a3.824 3.824 0 002.042 2.528z" data-name="Caminho 2280" transform="translate(-2338.347 748.662)" fill="#918ca7" opacity=".492"/><path id="Caminho_2281" d="M2391.485-687.891a11.046 11.046 0 0010.033 0l43.7-25.411a3.785 3.785 0 002.035-2.521h.037v-2.189h-.7a4.872 4.872 0 00-1.369-1.128l-43.7-25.411a11.046 11.046 0 00-10.033 0l-43.7 25.411a4.913 4.913 0 00-1.368 1.135h-.7v2.189h.037a3.8 3.8 0 002.034 2.513z" data-name="Caminho 2281" transform="translate(-2338.428 748.631)" fill="#8d89a5" opacity=".508"/><path id="Caminho_2282" d="M2391.592-688.035a11 11 0 009.989 0l43.5-25.293a3.787 3.787 0 002.027-2.506h.037v-2.181h-.7a5.094 5.094 0 00-1.361-1.128l-43.5-25.286a11 11 0 00-9.989 0l-43.5 25.293a5.1 5.1 0 00-1.361 1.128h-.7v2.181h.037a3.787 3.787 0 002.027 2.506z" data-name="Caminho 2282" transform="translate(-2338.513 748.597)" fill="#8985a2" opacity=".525"/><path id="Caminho_2283" d="M2391.7-688.168a10.952 10.952 0 009.945 0l43.3-25.175a3.775 3.775 0 002.02-2.491h.035V-718h-.7a5.012 5.012 0 00-1.354-1.12l-43.3-25.175a10.952 10.952 0 00-9.945 0l-43.3 25.175a4.937 4.937 0 00-1.354 1.12h-.7v2.167h.036a3.761 3.761 0 002.02 2.491z" data-name="Caminho 2283" transform="translate(-2338.6 748.561)" fill="#86819f" opacity=".541"/><path id="Caminho_2284" d="M2391.8-688.317a10.889 10.889 0 009.893 0l43.1-25.057a3.736 3.736 0 002-2.484h.037v-2.159h-.7a4.86 4.86 0 00-1.347-1.113l-43.1-25.065a10.89 10.89 0 00-9.893 0l-43.093 25.057a4.862 4.862 0 00-1.346 1.12h-.7v2.159h.037a3.758 3.758 0 002.005 2.484z" data-name="Caminho 2284" transform="translate(-2338.681 748.533)" fill="#827d9c" opacity=".557"/><path id="Caminho_2285" d="M2391.911-688.45a10.842 10.842 0 009.849 0l42.894-24.939a3.7 3.7 0 002-2.469h.037V-718H2446a4.918 4.918 0 00-1.339-1.113l-42.894-24.947a10.844 10.844 0 00-9.85 0l-42.894 24.939a4.954 4.954 0 00-1.346 1.113h-.688v2.145h.037a3.729 3.729 0 002 2.469z" data-name="Caminho 2285" transform="translate(-2338.765 748.497)" fill="#7e7999" opacity=".574"/><path id="Caminho_2286" d="M2392.014-688.6a10.8 10.8 0 009.805 0l42.695-24.821a3.719 3.719 0 001.99-2.461h.03v-2.137h-.687a5.008 5.008 0 00-1.332-1.105l-42.695-24.826a10.8 10.8 0 00-9.805 0l-42.687 24.822a4.917 4.917 0 00-1.339 1.105h-.688v2.137h.037a3.673 3.673 0 001.99 2.454z" data-name="Caminho 2286" transform="translate(-2338.847 748.466)" fill="#7b7596" opacity=".59"/><path id="Caminho_2287" d="M2392.131-688.729a10.734 10.734 0 009.753 0l42.489-24.7a3.707 3.707 0 001.982-2.447h.03v-2.13h-.68a4.855 4.855 0 00-1.332-1.1l-42.489-24.711a10.733 10.733 0 00-9.753 0l-42.489 24.7a4.979 4.979 0 00-1.332 1.1h-.681v2.13h.037a3.687 3.687 0 001.983 2.447z" data-name="Caminho 2287" transform="translate(-2338.934 748.43)" fill="#777293" opacity=".607"/><path id="Caminho_2288" d="M2392.232-688.865a10.686 10.686 0 009.709 0l42.29-24.593a3.671 3.671 0 001.968-2.439h.029v-2.115h-.68a4.793 4.793 0 00-1.324-1.091l-42.29-24.593a10.687 10.687 0 00-9.709 0l-42.29 24.593a4.943 4.943 0 00-1.324 1.1h-.68v2.115h.036a3.661 3.661 0 001.969 2.432z" data-name="Caminho 2288" transform="translate(-2339.013 748.396)" fill="#736e90" opacity=".623"/><path id="Caminho_2289" d="M2392.343-689.011a10.64 10.64 0 009.665 0l42.083-24.475a3.65 3.65 0 001.96-2.425h.03v-2.108h-.673a4.756 4.756 0 00-1.317-1.091l-42.083-24.475a10.64 10.64 0 00-9.665 0l-42.083 24.475a4.642 4.642 0 00-1.317 1.091h-.673v2.108h.037a3.65 3.65 0 001.96 2.425z" data-name="Caminho 2289" transform="translate(-2339.102 748.365)" fill="#706a8d" opacity=".639"/><path id="Caminho_2290" d="M2392.447-689.147a10.593 10.593 0 009.621 0l41.885-24.357a3.64 3.64 0 001.953-2.41h.029v-2.1h-.673a4.823 4.823 0 00-1.309-1.083l-41.885-24.364a10.577 10.577 0 00-9.613 0l-41.892 24.357a4.831 4.831 0 00-1.31 1.083h-.673v2.1h.036a3.622 3.622 0 001.954 2.41z" data-name="Caminho 2290" transform="translate(-2339.184 748.332)" fill="#6c668a" opacity=".656"/><path id="Caminho_2291" d="M2392.551-689.29a10.53 10.53 0 009.569 0l41.68-24.24a3.622 3.622 0 001.938-2.4h.03v-2.086h-.673a4.752 4.752 0 00-1.3-1.076l-41.685-24.246a10.53 10.53 0 00-9.569 0l-41.676 24.238a4.781 4.781 0 00-1.3 1.083h-.673v2.086h.036a3.623 3.623 0 001.939 2.4z" data-name="Caminho 2291" transform="translate(-2339.265 748.298)" fill="#686287" opacity=".672"/><path id="Caminho_2292" d="M2392.656-689.426a10.484 10.484 0 009.525 0l41.479-24.121a3.61 3.61 0 001.931-2.388h.029v-2.078h-.666a4.842 4.842 0 00-1.295-1.076l-41.479-24.129a10.484 10.484 0 00-9.525 0l-41.477 24.118a4.774 4.774 0 00-1.3 1.076h-.666v2.078h.036a3.594 3.594 0 001.932 2.388z" data-name="Caminho 2292" transform="translate(-2339.349 748.265)" fill="#655f84" opacity=".688"/><path id="Caminho_2293" d="M2392.763-689.57a10.436 10.436 0 009.48 0l41.28-24a3.584 3.584 0 001.924-2.38h.03v-2.063h-.666a4.76 4.76 0 00-1.287-1.069l-41.28-24.011a10.437 10.437 0 00-9.48 0l-41.273 24a4.964 4.964 0 00-1.294 1.069h-.666v2.064h.037a3.558 3.558 0 001.924 2.373z" data-name="Caminho 2293" transform="translate(-2339.433 748.231)" fill="#615b82" opacity=".705"/><path id="Caminho_2294" d="M2392.88-689.706a10.374 10.374 0 009.429 0l41.073-23.893a3.572 3.572 0 001.917-2.366h.029v-2.056h-.658a4.65 4.65 0 00-1.288-1.061l-41.073-23.893a10.374 10.374 0 00-9.429 0l-41.074 23.893a4.549 4.549 0 00-1.287 1.069h-.658v2.056h.029a3.571 3.571 0 001.917 2.366z" data-name="Caminho 2294" transform="translate(-2339.52 748.198)" fill="#5d577f" opacity=".721"/><path id="Caminho_2295" d="M2392.98-689.854a10.327 10.327 0 009.385 0l40.875-23.775a3.534 3.534 0 001.9-2.358h.029v-2.049h-.658a4.727 4.727 0 00-1.28-1.061l-40.875-23.775a10.328 10.328 0 00-9.385 0L2352.1-719.1a4.729 4.729 0 00-1.28 1.061h-.658v2.049h.029a3.529 3.529 0 001.9 2.351z" data-name="Caminho 2295" transform="translate(-2339.599 748.169)" fill="#5a537c" opacity=".738"/><path id="Caminho_2296" d="M2393.092-689.985a10.28 10.28 0 009.341 0l40.668-23.657a3.536 3.536 0 001.894-2.344h.03v-2.034h-.651a4.676 4.676 0 00-1.273-1.054l-40.668-23.657a10.28 10.28 0 00-9.341 0l-40.669 23.657a4.68 4.68 0 00-1.272 1.054h-.651v2.034h.029a3.56 3.56 0 001.894 2.344z" data-name="Caminho 2296" transform="translate(-2339.688 748.131)" fill="#564f79" opacity=".754"/><path id="Caminho_2297" d="M2393.2-690.131a10.218 10.218 0 009.289 0l40.469-23.539a3.547 3.547 0 001.887-2.329h.029v-2.027h-.651a4.594 4.594 0 00-1.265-1.047l-40.469-23.546a10.219 10.219 0 00-9.289 0l-40.469 23.539a4.637 4.637 0 00-1.266 1.047h-.651v2.027h.029a3.488 3.488 0 001.887 2.329z" data-name="Caminho 2297" transform="translate(-2339.77 748.1)" fill="#524b76" opacity=".771"/><path id="Caminho_2298" d="M2393.3-690.267a10.171 10.171 0 009.245 0l40.263-23.421a3.487 3.487 0 001.873-2.321h.029v-2.019h-.651a4.557 4.557 0 00-1.258-1.039l-40.272-23.433a10.171 10.171 0 00-9.245 0l-40.263 23.421a4.456 4.456 0 00-1.258 1.047h-.643v2.019h.03a3.505 3.505 0 001.872 2.321z" data-name="Caminho 2298" transform="translate(-2339.852 748.066)" fill="#4f4873" opacity=".787"/><path id="Caminho_2299" d="M2393.406-690.41a10.125 10.125 0 009.2 0l40.064-23.3a3.474 3.474 0 001.865-2.307h.029v-2h-.643a4.628 4.628 0 00-1.251-1.039l-40.064-23.311a10.124 10.124 0 00-9.2 0l-40.064 23.3a4.675 4.675 0 00-1.258 1.039h-.644v2h.029a3.477 3.477 0 001.866 2.307z" data-name="Caminho 2299" transform="translate(-2339.936 748.033)" fill="#4b4470" opacity=".803"/><path id="Caminho_2300" d="M2393.525-690.549a10.077 10.077 0 009.156 0l39.865-23.193a3.47 3.47 0 001.858-2.3h.029v-2h-.644a4.56 4.56 0 00-1.243-1.032l-39.865-23.193a10.061 10.061 0 00-9.148 0l-39.858 23.193a4.636 4.636 0 00-1.25 1.032h-.643v2h.029a3.443 3.443 0 001.858 2.292z" data-name="Caminho 2300" transform="translate(-2340.026 748.002)" fill="#47406d" opacity=".82"/><path id="Caminho_2301" d="M2393.628-690.692a10.015 10.015 0 009.1 0l39.659-23.075a3.458 3.458 0 001.85-2.285h.029v-1.99h-.636a4.424 4.424 0 00-1.243-1.024l-39.659-23.075a10.015 10.015 0 00-9.1 0l-39.659 23.075a4.571 4.571 0 00-1.243 1.032h-.636v1.99h.029a3.439 3.439 0 001.85 2.285z" data-name="Caminho 2301" transform="translate(-2340.107 747.968)" fill="#443c6a" opacity=".836"/><path id="Caminho_2302" d="M2393.732-690.828a9.968 9.968 0 009.06 0l39.459-22.957a3.42 3.42 0 001.836-2.277h.03v-1.975h-.636a4.651 4.651 0 00-1.236-1.024l-39.46-22.957a9.968 9.968 0 00-9.06 0l-39.452 22.957a4.654 4.654 0 00-1.236 1.024h-.636v1.975h.029a3.415 3.415 0 001.836 2.27z" data-name="Caminho 2302" transform="translate(-2340.188 747.935)" fill="#403867" opacity=".853"/><path id="Caminho_2303" d="M2393.841-690.974a9.922 9.922 0 009.016 0l39.253-22.839a3.423 3.423 0 001.828-2.263h.03v-1.968h-.629a4.454 4.454 0 00-1.228-1.017l-39.253-22.846a9.922 9.922 0 00-9.016 0l-39.253 22.839a4.355 4.355 0 00-1.229 1.017h-.629v1.968h.03a3.407 3.407 0 001.828 2.263z" data-name="Caminho 2303" transform="translate(-2340.275 747.904)" fill="#3c3564" opacity=".869"/><path id="Caminho_2304" d="M2393.945-691.107a9.86 9.86 0 008.965 0l39.054-22.721a3.4 3.4 0 001.821-2.255h.029v-1.953h-.629a4.4 4.4 0 00-1.221-1.01l-39.054-22.728a9.86 9.86 0 00-8.965 0l-39.054 22.721a4.426 4.426 0 00-1.221 1.017h-.629v1.953h.029a3.4 3.4 0 001.821 2.248z" data-name="Caminho 2304" transform="translate(-2340.357 747.868)" fill="#393161" opacity=".885"/><path id="Caminho_2305" d="M2394.053-691.253a9.812 9.812 0 008.92 0l38.848-22.6a3.41 3.41 0 001.813-2.24h.029v-1.946h-.622a4.467 4.467 0 00-1.214-1.01l-38.855-22.61a9.812 9.812 0 00-8.92 0l-38.848 22.6a4.356 4.356 0 00-1.214 1.01h-.622v1.946h.029a3.385 3.385 0 001.813 2.24z" data-name="Caminho 2305" transform="translate(-2340.444 747.837)" fill="#352d5f" opacity=".902"/><path id="Caminho_2306" d="M2394.154-691.387a9.765 9.765 0 008.876 0l38.649-22.485a3.338 3.338 0 001.8-2.226h.029v-1.938h-.622a4.551 4.551 0 00-1.206-1l-38.649-22.492a9.765 9.765 0 00-8.876 0l-38.649 22.485a4.474 4.474 0 00-1.214 1h-.622v1.938h.029a3.381 3.381 0 001.8 2.226z" data-name="Caminho 2306" transform="translate(-2340.523 747.801)" fill="#31295c" opacity=".918"/><path id="Caminho_2307" d="M2394.271-691.523a9.7 9.7 0 008.824 0l38.45-22.375a3.358 3.358 0 001.791-2.218h.03v-1.923h-.622a4.473 4.473 0 00-1.2-.995l-38.45-22.375a9.7 9.7 0 00-8.824 0l-38.443 22.375a4.53 4.53 0 00-1.206.995H2354v1.923h.029a3.357 3.357 0 001.792 2.218z" data-name="Caminho 2307" transform="translate(-2340.609 747.767)" fill="#2e2559" opacity=".934"/><path id="Caminho_2308" d="M2394.377-691.666a9.657 9.657 0 008.781 0l38.243-22.257a3.342 3.342 0 001.784-2.2h.029v-1.916h-.614a4.237 4.237 0 00-1.2-.988l-38.243-22.257a9.656 9.656 0 00-8.781 0l-38.243 22.257a4.372 4.372 0 00-1.2.995h-.614v1.916h.029a3.321 3.321 0 001.784 2.2z" data-name="Caminho 2308" transform="translate(-2340.693 747.733)" fill="#2a2156" opacity=".951"/><path id="Caminho_2309" d="M2394.48-691.807a9.609 9.609 0 008.736 0l38.045-22.139a3.306 3.306 0 001.769-2.2h.03v-1.909h-.614a4.306 4.306 0 00-1.192-.987l-38.045-22.146a9.61 9.61 0 00-8.737 0l-38.037 22.139a4.3 4.3 0 00-1.192.987h-.614v1.909h.029a3.282 3.282 0 001.77 2.189z" data-name="Caminho 2309" transform="translate(-2340.775 747.705)" fill="#261e53" opacity=".967"/><path id="Caminho_2310" d="M2394.589-691.948a9.547 9.547 0 008.685 0l37.838-22.021a3.287 3.287 0 001.762-2.182h.029v-1.894h-.607a4.376 4.376 0 00-1.184-.98l-37.838-22.028a9.547 9.547 0 00-8.685 0l-37.838 22.021a4.369 4.369 0 00-1.184.98h-.608v1.894h.03a3.292 3.292 0 001.761 2.181z" data-name="Caminho 2310" transform="translate(-2340.862 747.669)" fill="#231a50" opacity=".984"/><path id="Caminho_2311" d="M2442.15-718.048a4.309 4.309 0 00-1.177-.973l-37.64-21.91a9.5 9.5 0 00-8.64 0l-37.639 21.9a4.233 4.233 0 00-1.177.98h-.607v1.887h.029a3.26 3.26 0 001.755 2.167l37.639 21.91a9.5 9.5 0 008.64 0l37.64-21.9a3.269 3.269 0 001.754-2.174h.029v-1.887z" data-name="Caminho 2311" transform="translate(-2340.943 747.635)" fill="#1f164d"/></g><path id="Caminho_2312" d="M2442.553-759.509h-22.338l-15.979-9.3a11.468 11.468 0 00-10.453 0l-15.972 9.3h-22.331v32.854h.029a3.9 3.9 0 002.135 2.675l36.147 21.041a11.468 11.468 0 0010.453 0l36.147-21.041a3.9 3.9 0 002.135-2.675h.029v-32.854z" data-name="Caminho 2312" transform="translate(-2340.998 785.303)" fill="#f0f0f0"/><path id="Caminho_2313" d="M2404.232-740.421a11.467 11.467 0 01-10.453 0l-36.147-21.041c-2.887-1.68-2.887-4.407 0-6.087l36.147-21.041a11.467 11.467 0 0110.453 0l36.147 21.041c2.887 1.68 2.887 4.4 0 6.087z" class="cls-74" data-name="Caminho 2313" transform="translate(-2340.995 790.506)"/><path id="Caminho_2314" d="M2404.232-741.311a11.468 11.468 0 01-10.453 0l-36.147-21.041c-2.887-1.68-2.887-4.4 0-6.087l36.147-21.041a11.468 11.468 0 0110.453 0l36.147 21.041c2.887 1.68 2.887 4.4 0 6.08z" class="cls-9" data-name="Caminho 2314" transform="translate(-2340.995 790.74)"/></g><g id="Grupo_1151" data-name="Grupo 1151" transform="translate(831.487 240.122)"><path id="Caminho_2373" d="M2381.434-752.835c1.157 0 24.239 8.32 24.217-10.8s-29.472 2.712-29.472 2.712z" class="cls-74" data-name="Caminho 2373" transform="translate(-2353.753 826.123)"/><path id="Caminho_2374" d="M2346.855-693.017l7.576-7.694a9.585 9.585 0 014.908-.7 1.508 1.508 0 011.312 1.378l.133 1.533c.272 2.2.074 2.52-1.275 3.324l-8.01 4.761a5.14 5.14 0 01-4.606.251l-.339-.192c-1.18-.656-1.048-1.858.301-2.661z" class="cls-75" data-name="Caminho 2374" transform="translate(-2345.749 807.497)"/><path id="Caminho_2375" d="M2363.233-702.66c0 2.27-5.513 2.27-5.513 0v-7.37h5.513z" class="cls-76" data-name="Caminho 2375" transform="translate(-2348.898 809.749)"/><path id="Caminho_2376" d="M2366.662-682.487l6.559-8.578a9.568 9.568 0 014.783-1.3 1.506 1.506 0 011.474 1.2l.324 1.5c.538 2.152.391 2.5-.848 3.456l-7.355 5.719a5.147 5.147 0 01-4.54.825l-.354-.147c-1.266-.508-1.281-1.71-.043-2.675z" class="cls-75" data-name="Caminho 2376" transform="translate(-2351.009 805.104)"/><path id="Caminho_2377" d="M2381.282-693.759c.28 2.248-5.188 2.933-5.469.685l-.914-7.311 5.469-.685z" class="cls-76" data-name="Caminho 2377" transform="translate(-2353.416 807.392)"/><path id="Caminho_2378" d="M2375.138-769.85s-17.069 8.733-17.776 13.28c-.626 3.994-1.312 27.622-.914 33.179a2.21 2.21 0 001.246 1.85c1.688.8 4.746 1.688 5.763-1.761 1.437-4.857.944-21.461 4.385-26.207s20.518-11.453 20.518-11.453z" class="cls-74" data-name="Caminho 2378" transform="translate(-2348.532 825.602)"/><path id="Caminho_2379" d="M2390.352-759.1s-19.095 9.522-19.655 13.848c-.486 3.781 1.865 25.3 2.476 30.71a2.246 2.246 0 001.423 1.842c1.739.685 4.731 1.327 5.623-1.916 1.275-4.65.221-20.348 3.508-24.969 1.783-2.506 6.367-5.343 14.2-9.035 3.582-1.688 6.146-8.726 1.791-9.286z" class="cls-74" data-name="Caminho 2379" transform="translate(-2352.293 822.655)"/><path id="Caminho_2380" d="M2373.093-805.83l-3.641 13.958c-.317 1.658-.877 4.083-1.29 6.92a16.637 16.637 0 003.339 12.529 76.045 76.045 0 012.579-10.052 111.227 111.227 0 004.1-12.529c-.002-.353-5.087-10.826-5.087-10.826z" class="cls-77" data-name="Caminho 2380" transform="translate(-2351.603 835.246)"/><path id="Caminho_2381" d="M2379.184-818.7l-8.564 14.717c1.172 4.68 3.707 7.06 6.906 8.313l2.719-18.181z" class="cls-78" data-name="Caminho 2381" transform="translate(-2352.291 838.685)"/><path id="Caminho_2382" d="M2373.26-801.15s1.378 4.068 9.058 6.692" class="cls-79" data-name="Caminho 2382" transform="translate(-2352.985 834.033)"/><path id="Caminho_2383" d="M2378.692-784.473c1.319-7.237 1.032-11.659-.162-21.652 0-13.84 4.215-18.985 12.934-15.808l3.6.958c10.524 5.667 15.867 5.387 13.988 16.523l-1.842 24.409c-.004 12.565-29.189 10.343-28.518-4.43z" class="cls-78" data-name="Caminho 2383" transform="translate(-2354.371 839.86)"/><path id="Caminho_2384" d="M2393.415-826.257a7.385 7.385 0 002.071 1.415c.693.14 8.173-5.9 5.469-12.676-1.717-4.289-9.824-.929-9.824-.929z" class="cls-75" data-name="Caminho 2384" transform="translate(-2357.685 844.294)"/><path id="Caminho_2385" d="M2395.859-818.12l-.42.074a2.615 2.615 0 01-3.007-2.13l-1.356-7.967a2.615 2.615 0 012.13-3.007l.42-.074a2.615 2.615 0 013.007 2.13l2.425 7.466c.242 1.415-1.784 3.265-3.199 3.508z" class="cls-77" data-name="Caminho 2385" transform="translate(-2357.661 842.075)"/><path id="Caminho_2386" d="M2392.33-820.9a7.127 7.127 0 005.653-3.206s-2.152 5-5.277 5.431z" data-name="Caminho 2386" transform="translate(-2358.001 840.194)" fill="#f09a82"/><path id="Caminho_2387" d="M2392.464-829.46c-.8 3.8-3.486 5.063-6.014 2.8s-3.936-7.178-3.139-10.981 3.486-5.063 6.013-2.8 3.936 7.178 3.14 10.981z" class="cls-77" data-name="Caminho 2387" transform="translate(-2355.57 844.785)"/><path id="Caminho_2388" d="M2397.245-831.311c-.8 3.8-4.687 5.446-7.215 3.191s-3.936-7.178-3.14-10.981 3.486-5.063 6.014-2.8 5.137 6.78 4.341 10.59z" class="cls-77" data-name="Caminho 2388" transform="translate(-2356.512 845.169)"/><path id="Caminho_2389" d="M2391.747-839.8s.39 7.2 6.249 7.841c0 0 5.7-4.709-.088-10.73-5.1-5.306-10.878.361-10.878.361z" class="cls-74" data-name="Caminho 2389" transform="translate(-2356.607 845.677)"/><path id="Caminho_2390" d="M2383.1-835.782a6.832 6.832 0 015.372-3.228l-2.472-2.38s-3.087-.022-2.9 5.608z" data-name="Caminho 2390" transform="translate(-2355.571 844.739)" fill="#21ded5"/><path id="Caminho_2391" d="M2393.506-836.4c-1.592-1.533-4.437-.921-8.254 1.356-3.729.87-4.99-3.361-4.99-3.361-.987-2.2.361-3.493 2.557-4.481l5.727-2.572c3.235-1.474 6.994.759 7.981 2.955l.221.354c.988 2.195-1.039 4.759-3.242 5.749z" class="cls-74" data-name="Caminho 2391" transform="translate(-2354.74 845.934)"/><path id="Caminho_2392" d="M2401.28-826.706a1.71 1.71 0 01-2.027 1.327 1.71 1.71 0 01-1.327-2.027 1.71 1.71 0 012.027-1.327 1.71 1.71 0 011.327 2.027z" class="cls-77" data-name="Caminho 2392" transform="translate(-2359.464 841.419)"/><path id="Caminho_2393" d="M2391.975-819.857s-2.889 4.039 1.187 5.771c6.463 2.749 8.468-4.562 7.458-4.989l-2.041-1.054a2.757 2.757 0 01-.649 3.744c-1.518 1.282-4.252 1.555-5.424-.45z" class="cls-9" data-name="Caminho 2393" transform="translate(-2357.646 839.077)"/><path id="Caminho_2394" d="M2407.26-800.16v23.7l4.377-2.565z" data-name="Caminho 2394" transform="translate(-2361.928 833.75)" fill="#98c1f5"/><g id="Grupo_1150" data-name="Grupo 1150" transform="translate(10.368 49.961)"><path id="Caminho_2395" d="M2391.852-758.8l-2.02-.715-.236-.236-.155-.273-15.233-7.922a.784.784 0 00-.678.029l-5.815 3.412-.007-.1-1.1.442.051.45h.008a.282.282 0 00.125.118l15.852 8.239a.093.093 0 01.044.059c.332 1.216.885 2.3 1.917 1.666l6.441-3.8a1.516 1.516 0 00.8-1.378z" class="cls-83" data-name="Caminho 2395" transform="translate(-2361.604 775.265)"/><path id="Caminho_2396" d="M2382.679-754.32l-18.255-9.492c-.214-.111-.207-.3.008-.427l7.753-4.547a.894.894 0 01.774-.029l18.255 9.492c.214.111.207.3-.007.427l-7.753 4.547a.893.893 0 01-.775.029z" data-name="Caminho 2396" transform="translate(-2360.987 775.498)" fill="#e1eaf4"/><path id="Caminho_2397" d="M2388.351-758.669l-4.414-2.3c-.052-.029-.052-.074 0-.1l1.879-1.1a.219.219 0 01.192-.007l4.415 2.3c.052.029.052.074 0 .1l-1.879 1.1a.249.249 0 01-.193.007z" class="cls-83" data-name="Caminho 2397" transform="translate(-2366.151 773.737)"/><path id="Caminho_2398" d="M2379.934-767.357a2.061 2.061 0 00-.921-1.142l-18.108-9.279a.483.483 0 00-.383-.059.23.23 0 00-.081.066l-.5.568.508-.044 2.719 10.03a2.059 2.059 0 00.921 1.142l17.12 8.77.582.56.081.14c.332.066 1.061-.464 1.061-.464z" class="cls-9" data-name="Caminho 2398" transform="translate(-2359.849 777.856)"/><path id="Caminho_2399" d="M2381.619-755.977s-18.9-9.986-19.021-10.421l-2.749-10.141c-.118-.435.1-.619.494-.42l18.107 9.279a2.088 2.088 0 01.922 1.142l2.749 10.141c.109.435-.111.619-.502.42z" data-name="Caminho 2399" transform="translate(-2359.817 777.641)" fill="#5f6ccf"/><path id="Caminho_2400" d="M2374.627-762.46c.147.538-.354.656-1.113.273a3.476 3.476 0 01-1.644-1.68c-.147-.538.354-.656 1.113-.273a3.477 3.477 0 011.644 1.68z" class="cls-9" data-name="Caminho 2400" transform="translate(-2362.981 774.307)"/></g><path id="Caminho_2401" d="M2402.885-800.16l2.4 21.24c.1 1.135-17.37 6.736-17.37 6.736l1.474 6.154 17.864-4.569c4.724-1.982 4.6-5.594 4.547-8.556l-.332-18.4z" class="cls-77" data-name="Caminho 2401" transform="translate(-2356.839 833.733)"/><path id="Caminho_2402" d="M2407.443-801.283l1.5 15.734c.442 1.3 12.2-1.385 11.732-3.331-.081-.346-1.29-19.2-6.566-23.5-4.278-3.502-7.709 3.838-6.666 11.097z" class="cls-78" data-name="Caminho 2402" transform="translate(-2361.927 837.238)"/><path id="Caminho_2403" d="M2409.51-782.441s4.871 1.26 10.9-3.169" class="cls-79" data-name="Caminho 2403" transform="translate(-2362.52 829.908)"/></g></g></g></svg>